<svg version="1.1" id="Layer_1" xmlns="http://www.w3.org/2000/svg" xmlns:xlink="http://www.w3.org/1999/xlink" x="0px" y="0px"
	 width="100%" viewBox="0 0 4500 4500" enable-background="new 0 0 4500 4500" xml:space="preserve">
<path fill="#FFFFFF" opacity="1.000000" stroke="none" 
	d="
M2532.000000,4504.000000 
	C1688.093262,4504.000000 846.186584,4504.000000 4.139947,4504.000000 
	C4.139947,3004.259521 4.139947,1504.519043 4.139947,4.389258 
	C1503.574097,4.389258 3003.148438,4.389258 4503.361328,4.389258 
	C4503.361328,1503.999756 4503.361328,3003.999756 4503.361328,4504.000000 
	C3847.183838,4504.000000 3190.592041,4504.000000 2532.000000,4504.000000 
M1108.570190,3137.254150 
	C1136.548828,3176.912842 1174.590820,3202.276123 1220.552368,3216.689941 
	C1267.457886,3231.400146 1315.207642,3232.751709 1362.795044,3222.980469 
	C1430.416260,3209.095703 1483.320801,3171.545654 1524.011353,3116.291504 
	C1528.762817,3109.839355 1529.253052,3104.682617 1525.860596,3101.947266 
	C1521.038452,3098.059326 1517.039551,3101.772949 1513.194214,3103.970215 
	C1494.093018,3114.885986 1474.859009,3125.425781 1454.269287,3133.449219 
	C1429.111694,3143.252441 1403.181519,3145.023438 1377.814087,3137.461914 
	C1304.490234,3115.605713 1259.887695,3065.349609 1240.457031,2992.330322 
	C1236.571045,2977.727051 1235.503174,2962.438232 1237.774292,2946.765869 
	C1242.887207,2911.483154 1256.945557,2880.208008 1278.164551,2852.239502 
	C1292.223389,2833.708984 1307.029053,2815.397949 1323.715454,2799.281982 
	C1356.280151,2767.830322 1389.596191,2737.044678 1424.059204,2707.695557 
	C1476.818359,2662.765869 1531.065552,2619.589111 1584.209961,2575.104980 
	C1638.945312,2529.289062 1690.772095,2480.416016 1736.173218,2425.106201 
	C1793.510986,2355.254639 1836.316162,2277.653564 1861.419067,2190.540039 
	C1875.159668,2142.856934 1882.279907,2094.125732 1882.742798,2044.691650 
	C1883.187012,1997.236084 1876.895996,1950.311646 1863.793945,1904.564819 
	C1840.657349,1823.782227 1803.190674,1751.158447 1741.882568,1692.200317 
	C1703.277222,1655.074707 1658.703125,1627.933960 1607.640015,1611.835327 
	C1536.584351,1589.433350 1464.709473,1589.018066 1392.683105,1606.261719 
	C1308.554932,1626.402466 1240.980591,1673.041016 1185.952881,1738.700073 
	C1148.832642,1782.992188 1120.560059,1832.657227 1099.198486,1886.278809 
	C1093.312866,1901.052490 1087.908813,1916.018066 1082.408936,1930.564453 
	C1080.252319,1930.564453 1078.870117,1930.846558 1077.657837,1930.512207 
	C1073.806885,1929.450195 1069.988281,1928.248169 1066.211914,1926.941772 
	C1028.265747,1913.812134 989.431946,1905.109497 949.229126,1902.838623 
	C913.670349,1900.830322 878.659058,1903.641846 844.558105,1914.341797 
	C784.087280,1933.315918 732.487976,1966.485962 689.261108,2012.666870 
	C663.523254,2040.163574 642.887024,2071.071777 629.276367,2106.364990 
	C618.123596,2135.284668 612.333130,2165.446777 613.489014,2196.297852 
	C615.471863,2249.221924 631.667297,2298.193115 657.716553,2344.188477 
	C680.898438,2385.120117 711.006653,2420.697510 742.639526,2455.015625 
	C810.537781,2528.677734 884.258301,2596.059570 964.288635,2656.363525 
	C988.216553,2674.393799 1013.176147,2691.080322 1038.008301,2707.872070 
	C1047.852051,2714.528809 1056.533691,2713.701172 1061.314209,2707.301025 
	C1066.348511,2700.561035 1063.887573,2692.102295 1058.268433,2685.507568 
	C1042.279541,2666.742920 1027.029419,2647.344727 1010.905579,2628.699951 
	C987.818054,2602.001953 963.047974,2576.782959 942.289062,2548.055176 
	C926.681213,2526.455811 910.070862,2505.582764 893.999390,2484.316406 
	C870.273376,2452.921143 847.433044,2420.904785 829.200073,2385.920898 
	C798.662170,2327.327148 782.564575,2265.802734 791.337708,2199.103027 
	C795.219116,2169.593506 804.282776,2142.068604 819.321045,2116.465332 
	C857.759277,2051.022705 940.341675,2017.442505 1003.847351,2031.861450 
	C1014.827698,2034.354492 1025.589722,2038.121460 1036.144775,2042.114014 
	C1063.551147,2052.480469 1090.777832,2063.321045 1118.108521,2073.889160 
	C1119.839844,2074.558594 1121.847168,2074.514404 1123.791504,2074.812500 
	C1124.875488,2073.593262 1126.042480,2072.761230 1126.556519,2071.631836 
	C1137.589966,2047.396606 1147.876587,2022.796021 1159.643433,1998.924561 
	C1205.956665,1904.968628 1279.617554,1842.450439 1379.101685,1810.324829 
	C1414.509399,1798.890869 1451.111572,1795.386963 1487.752075,1801.021484 
	C1543.881958,1809.653198 1590.357910,1837.250000 1628.094971,1879.232178 
	C1673.075806,1929.272583 1694.613403,1989.326538 1699.792236,2055.533691 
	C1704.442261,2114.979492 1693.890259,2172.289062 1672.576416,2227.784180 
	C1652.336914,2280.481689 1623.305176,2328.130859 1589.373291,2372.961182 
	C1544.921021,2431.691162 1492.605347,2482.938232 1437.484009,2531.415039 
	C1384.952148,2577.614014 1331.456543,2622.728271 1279.368164,2669.416748 
	C1234.651123,2709.497803 1193.250366,2752.912598 1157.604370,2801.474121 
	C1129.900513,2839.215820 1105.416260,2878.713135 1090.252441,2923.452881 
	C1079.243164,2955.935791 1072.644653,2989.296875 1073.368286,3023.437500 
	C1074.214844,3063.372803 1084.501709,3101.126953 1108.570190,3137.254150 
M2344.480225,2285.133545 
	C2328.483887,2285.100342 2312.481201,2284.765869 2296.493408,2285.117676 
	C2280.008057,2285.479980 2263.394775,2283.446533 2246.475342,2286.626709 
	C2234.858398,2315.386963 2223.338623,2343.726074 2211.958740,2372.120850 
	C2193.135742,2419.088867 2174.487793,2466.127686 2155.532715,2513.042236 
	C2152.970703,2519.383301 2151.380615,2526.519775 2144.611328,2532.951416 
	C2127.530762,2490.841064 2111.186523,2450.125732 2094.509521,2409.547363 
	C2077.585938,2368.369141 2061.685303,2326.756348 2044.286621,2286.978271 
	C2041.452515,2286.046631 2040.224243,2285.293213 2038.993774,2285.289551 
	C2007.671143,2285.196533 1976.348022,2285.126221 1945.026001,2285.263916 
	C1942.636108,2285.274414 1940.253052,2286.854492 1937.188477,2287.946777 
	C1937.188477,2407.059814 1937.180298,2525.652588 1937.264038,2644.245117 
	C1937.265381,2646.082275 1938.400757,2647.918213 1938.945068,2649.567383 
	C1957.022705,2652.820801 2011.703979,2652.518311 2027.683838,2648.758789 
	C2027.765015,2615.338135 2027.628174,2581.482178 2027.746460,2547.628174 
	C2027.863647,2514.057129 2027.249268,2480.469482 2029.691650,2446.573486 
	C2038.966797,2462.090820 2044.039917,2479.108398 2050.514160,2495.492676 
	C2057.363037,2512.825928 2063.509277,2530.436279 2069.998047,2547.912354 
	C2076.255127,2564.764404 2082.498535,2581.622070 2088.856689,2598.436035 
	C2095.437500,2615.838623 2102.148926,2633.192139 2109.156738,2651.490479 
	C2133.499512,2651.901611 2157.310547,2651.779785 2181.547119,2651.594238 
	C2185.139404,2642.552490 2188.400879,2634.623535 2191.442871,2626.611328 
	C2194.751709,2617.896484 2197.805420,2609.085205 2201.065186,2600.351318 
	C2204.091553,2592.242920 2207.278320,2584.194336 2210.328857,2576.094971 
	C2213.379883,2567.994629 2216.359131,2559.867188 2219.352783,2551.745361 
	C2222.576904,2542.998047 2225.750000,2534.231689 2229.003418,2525.495361 
	C2232.023682,2517.385010 2235.137939,2509.309326 2238.178711,2501.206299 
	C2241.453857,2492.478271 2244.380859,2483.603516 2248.038086,2475.039551 
	C2251.272461,2467.465332 2252.322998,2458.669189 2259.587158,2450.997070 
	C2263.689697,2458.681641 2262.407959,2465.255371 2262.419678,2471.484619 
	C2262.520752,2525.471436 2262.426758,2579.458496 2262.554199,2633.444824 
	C2262.567871,2639.218750 2260.945801,2645.427979 2265.125732,2650.571777 
	C2290.446777,2652.898193 2336.264648,2652.279785 2351.604980,2649.201416 
	C2351.848145,2642.984375 2352.322021,2636.470703 2352.324707,2629.957031 
	C2352.370605,2521.983398 2352.359375,2414.009766 2352.350098,2306.036133 
	C2352.349854,2301.371582 2352.667480,2296.647705 2352.016602,2292.068115 
	C2351.693848,2289.795166 2349.504395,2287.787354 2344.480225,2285.133545 
M2716.177979,2846.559814 
	C2700.806152,2779.893555 2639.836914,2754.974365 2585.284912,2762.856934 
	C2557.076172,2766.932617 2533.800537,2780.015869 2514.599121,2800.788330 
	C2511.158691,2804.510254 2507.688721,2808.204834 2503.818359,2812.356445 
	C2497.731934,2805.176025 2493.104004,2798.635742 2487.383545,2793.258057 
	C2481.117676,2787.367432 2474.324219,2781.726562 2466.928223,2777.399902 
	C2424.880615,2752.802246 2363.735107,2755.944336 2329.255859,2790.043701 
	C2326.991943,2792.282715 2324.781494,2795.199707 2320.884277,2792.765625 
	C2319.150635,2783.858643 2322.049316,2774.369873 2318.783691,2765.902344 
	C2297.306152,2763.453125 2247.335205,2763.733887 2232.554199,2766.248291 
	C2232.041992,2767.462891 2231.212158,2768.643555 2231.079102,2769.898193 
	C2230.728760,2773.200684 2230.531006,2776.535645 2230.535645,2779.857178 
	C2230.657471,2870.462646 2230.810547,2961.067871 2230.997803,3051.673340 
	C2230.999023,3052.272949 2231.508057,3052.893066 2231.846191,3053.464600 
	C2232.167480,3054.006836 2232.575928,3054.497314 2233.905029,3056.341797 
	C2258.176758,3056.341797 2283.432129,3056.432129 2308.685059,3056.242188 
	C2312.384277,3056.214355 2316.073242,3054.850098 2320.336670,3053.989014 
	C2320.336670,3046.361328 2320.336426,3039.723389 2320.336426,3033.085205 
	C2320.336670,2990.444336 2320.282715,2947.802979 2320.394531,2905.162598 
	C2320.411865,2898.528809 2320.518799,2891.772949 2321.725586,2885.286133 
	C2327.481689,2854.351318 2348.426758,2838.175537 2379.819580,2839.935303 
	C2405.699463,2841.385742 2423.828125,2856.317383 2428.829102,2881.628418 
	C2430.876221,2891.989014 2431.467041,2902.768066 2431.541260,2913.364990 
	C2431.835938,2955.337891 2431.629150,2997.313721 2431.709473,3039.288574 
	C2431.719482,3044.414551 2432.342529,3049.539307 2432.661621,3054.364746 
	C2454.199463,3057.471924 2504.508545,3057.050293 2519.681641,3053.627197 
	C2519.893799,3047.361084 2520.298096,3040.824951 2520.306885,3034.288574 
	C2520.364746,2990.981201 2520.103760,2947.671875 2520.515381,2904.368408 
	C2520.609375,2894.501221 2521.824951,2884.345215 2524.477539,2874.868652 
	C2529.089600,2858.392334 2540.250488,2847.622314 2556.939941,2842.575195 
	C2566.092041,2839.807373 2575.263672,2839.223145 2584.593018,2840.352539 
	C2607.401123,2843.113770 2624.013428,2857.838135 2628.527832,2880.463135 
	C2630.596924,2890.832275 2631.445557,2901.592529 2631.526855,2912.185303 
	C2631.853516,2954.823975 2631.613770,2997.466553 2631.731445,3040.107178 
	C2631.745605,3045.169189 2632.667725,3050.228271 2633.275391,3056.363525 
	C2648.485596,3056.363525 2662.419434,3056.786621 2676.315918,3056.246094 
	C2690.649902,3055.688965 2705.271729,3058.696289 2719.554199,3054.193115 
	C2719.858887,3050.688232 2720.282471,3048.075684 2720.284424,3045.462402 
	C2720.326172,2990.162354 2720.494385,2934.861572 2720.163086,2879.563477 
	C2720.103760,2869.671875 2717.939453,2859.792725 2716.177979,2846.559814 
M3391.007324,3051.486084 
	C3397.989014,3053.640625 3404.833740,3056.589600 3411.974609,3057.818848 
	C3452.916016,3064.865723 3490.256592,3058.943604 3519.864746,3026.544189 
	C3521.487305,3024.769043 3522.871582,3021.823486 3527.067139,3023.789551 
	C3527.516357,3033.702148 3527.984619,3044.031006 3528.439453,3054.067383 
	C3547.300537,3057.429932 3601.957031,3057.162842 3615.992188,3053.838623 
	C3617.987305,3037.199219 3619.222412,2731.088623 3617.430420,2680.528564 
	C3617.316650,2677.318848 3616.560791,2674.131592 3616.040771,2670.492676 
	C3605.595703,2667.841553 3595.635498,2669.373779 3585.815674,2669.107178 
	C3576.499756,2668.854004 3567.157227,2668.727783 3557.852783,2669.142090 
	C3548.147461,2669.573975 3538.079102,2667.017578 3527.657959,2672.059082 
	C3527.657959,2678.087646 3527.657715,2684.031250 3527.657715,2689.974854 
	C3527.657715,2695.968018 3527.657715,2701.961182 3527.657715,2707.954346 
	C3527.657715,2713.947510 3527.657715,2719.940918 3527.657715,2725.934082 
	C3527.657715,2731.927246 3527.657715,2737.920410 3527.657715,2743.913574 
	C3527.657715,2749.906738 3527.657715,2755.899902 3527.657715,2761.893066 
	C3527.657715,2767.886230 3527.772217,2773.882080 3527.625000,2779.871826 
	C3527.485107,2785.572266 3528.358154,2791.421143 3526.195312,2799.133301 
	C3521.425293,2794.976318 3518.287354,2791.863770 3514.773926,2789.257812 
	C3507.327637,2783.735840 3500.212402,2777.438721 3492.031738,2773.294189 
	C3459.271729,2756.696777 3425.352539,2755.790283 3391.539307,2769.443604 
	C3351.524902,2785.600586 3328.280029,2816.921387 3316.589600,2857.353516 
	C3307.945557,2887.250977 3306.794678,2917.903809 3313.051514,2948.281738 
	C3322.370117,2993.526855 3344.607178,3029.935303 3391.007324,3051.486084 
M3089.032471,2383.330078 
	C3088.707764,2386.444092 3089.644287,2390.166504 3085.029785,2391.299316 
	C3083.567383,2390.157471 3081.886230,2389.067383 3080.468018,2387.703857 
	C3049.429199,2357.868896 3012.408936,2350.211670 2971.435791,2359.236572 
	C2929.816162,2368.403809 2902.199463,2394.857422 2885.460938,2433.000000 
	C2870.578125,2466.914307 2868.740967,2502.598633 2874.145264,2538.830811 
	C2877.430664,2560.856201 2884.933838,2581.455566 2897.254150,2600.020752 
	C2917.885742,2631.111084 2946.586426,2650.606445 2983.807617,2654.912354 
	C3020.456787,2659.152100 3054.126953,2651.656250 3080.603760,2623.314209 
	C3082.126953,2621.683838 3084.582764,2620.924316 3087.991699,2618.959961 
	C3088.789551,2630.510010 3089.456055,2640.164062 3090.098389,2649.462646 
	C3109.455078,2652.824463 3163.751953,2652.502441 3178.877930,2648.955078 
	C3179.138184,2646.040283 3179.674805,2642.830322 3179.675781,2639.620361 
	C3179.715576,2518.373779 3179.716797,2397.127197 3179.643555,2275.880615 
	C3179.641602,2272.776855 3178.748779,2269.673584 3178.092285,2265.405762 
	C3162.484863,2265.275391 3147.931152,2264.673584 3133.414795,2265.168701 
	C3119.070801,2265.657471 3104.427002,2262.633789 3089.053955,2267.604492 
	C3089.053955,2305.382568 3089.053955,2342.608887 3089.032471,2383.330078 
M1841.207153,2814.961426 
	C1848.389038,2814.355469 1855.792725,2816.362549 1863.719604,2812.952637 
	C1863.536987,2809.891357 1864.049805,2806.471436 1863.053345,2803.570068 
	C1845.357178,2752.041992 1812.038330,2715.217285 1760.204224,2696.776123 
	C1726.327148,2684.724121 1691.297363,2681.912842 1655.883301,2688.454346 
	C1590.552490,2700.521240 1544.140381,2736.651611 1520.342651,2799.169678 
	C1502.937866,2844.893311 1502.520996,2891.895020 1517.601685,2938.278076 
	C1534.676025,2990.793213 1569.535645,3027.824463 1621.499268,3046.934814 
	C1665.286133,3063.038574 1710.105103,3063.706787 1754.771484,3049.552734 
	C1808.056274,3032.667236 1843.085693,2996.878174 1861.901367,2944.731445 
	C1863.341919,2940.739258 1863.234619,2936.188232 1863.854370,2931.845215 
	C1841.210938,2929.568359 1781.450317,2929.981445 1766.561035,2932.440186 
	C1763.344971,2937.016602 1760.024292,2941.970703 1756.470947,2946.751465 
	C1748.742798,2957.149170 1738.763184,2964.901855 1726.906738,2969.877197 
	C1688.580322,2985.960205 1630.273804,2977.552002 1607.999512,2920.920166 
	C1598.457275,2896.658936 1597.436523,2871.533203 1601.796387,2846.246094 
	C1603.470337,2836.537842 1606.853027,2826.862549 1611.010498,2817.892090 
	C1625.138184,2787.408936 1649.871460,2771.115479 1682.928467,2768.448730 
	C1715.900146,2765.788818 1743.017944,2777.113525 1761.733887,2805.574707 
	C1763.871338,2808.825195 1766.530762,2811.732422 1769.076050,2814.961182 
	C1792.164551,2814.961182 1814.785645,2814.961182 1841.207153,2814.961426 
M2995.835449,3010.063232 
	C2997.872559,3012.698242 2999.838379,3015.392334 3001.957520,3017.959717 
	C3048.085938,3073.858154 3136.333496,3072.876953 3176.054932,3027.754639 
	C3177.650879,3025.942139 3179.443604,3023.411133 3183.662109,3025.857178 
	C3184.095947,3034.864014 3184.561523,3044.532959 3185.011475,3053.876709 
	C3201.926758,3057.230957 3256.952148,3057.270508 3273.876465,3053.955811 
	C3274.201172,3051.088135 3274.876953,3047.894043 3274.878662,3044.699219 
	C3274.929443,2954.737061 3274.931641,2864.774658 3274.824951,2774.812500 
	C3274.821045,2771.691162 3273.620605,2768.571289 3272.734131,2764.265381 
	C3257.490234,2764.265381 3242.882080,2763.820557 3228.313721,2764.391357 
	C3213.958252,2764.953613 3199.300049,2761.788818 3184.276123,2766.807129 
	C3184.276123,2772.664307 3184.457520,2777.968750 3184.222900,2783.254395 
	C3184.005371,2788.153564 3185.296875,2793.421631 3182.160400,2799.127441 
	C3179.139160,2796.344238 3177.144043,2794.734375 3175.414307,2792.877686 
	C3154.605957,2770.548096 3128.196045,2761.121826 3098.450439,2760.370361 
	C3045.386475,2759.029297 3000.632324,2788.952881 2979.668701,2839.106934 
	C2971.878662,2857.744385 2967.722168,2877.201660 2966.785400,2897.328125 
	C2964.947021,2936.822510 2971.151611,2974.362305 2995.835449,3010.063232 
M3798.104980,3060.382812 
	C3812.835693,3060.773926 3827.414551,3059.586182 3841.656738,3055.657715 
	C3885.476562,3043.570557 3917.249512,3017.570557 3934.260254,2974.806885 
	C3935.924316,2970.623535 3936.476807,2965.998291 3937.561523,2961.510498 
	C3921.392822,2959.070557 3862.108154,2958.899170 3843.433105,2961.117432 
	C3823.173096,2985.385742 3802.012207,2992.506348 3777.188232,2983.409180 
	C3756.680908,2975.894287 3744.297607,2956.595215 3745.333008,2932.384033 
	C3767.190674,2932.384033 3789.127441,2932.384033 3811.064209,2932.384033 
	C3833.052246,2932.384033 3855.040527,2932.449707 3877.028320,2932.365479 
	C3898.920410,2932.281982 3920.830322,2932.748047 3942.871582,2932.030273 
	C3947.455078,2912.951904 3946.483398,2894.950195 3943.475586,2877.343994 
	C3933.856934,2821.042480 3902.480957,2783.113281 3846.882080,2766.802246 
	C3816.081543,2757.766602 3785.099121,2757.863281 3754.241943,2766.577148 
	C3704.570557,2780.604004 3673.022217,2812.720459 3659.126709,2862.385010 
	C3650.865967,2891.910400 3650.493164,2921.838623 3657.194092,2951.375977 
	C3667.386230,2996.300537 3693.221191,3029.536377 3736.030273,3048.234375 
	C3754.515137,3056.308594 3774.037598,3060.373291 3798.104980,3060.382812 
M2551.787109,2361.089355 
	C2550.750977,2362.700928 2549.013428,2364.231201 2548.814453,2365.940186 
	C2548.278076,2370.550049 2548.276123,2375.236328 2548.274658,2379.892334 
	C2548.250000,2463.882080 2548.207275,2547.872070 2548.355957,2631.861572 
	C2548.367188,2638.224609 2546.150635,2645.227295 2551.333252,2650.740479 
	C2578.833252,2652.935059 2622.684814,2652.280518 2638.098877,2649.233398 
	C2638.376953,2643.069336 2638.912842,2636.559326 2638.924805,2630.048340 
	C2639.001709,2588.053467 2638.893311,2546.058350 2639.022705,2504.063965 
	C2639.049316,2495.417236 2639.166260,2486.677979 2640.395752,2478.147705 
	C2642.686768,2462.254395 2650.125732,2448.959717 2664.125244,2440.515381 
	C2691.532227,2423.984619 2739.338867,2430.926025 2747.507568,2477.483887 
	C2748.992432,2485.947998 2748.943604,2494.745361 2748.970459,2503.390869 
	C2749.107178,2547.385010 2748.985596,2591.380371 2749.105469,2635.374512 
	C2749.119385,2640.470459 2750.071045,2645.563721 2750.557373,2650.354248 
	C2777.013428,2653.060547 2823.423096,2652.341797 2838.075195,2648.954102 
	C2838.346191,2646.077637 2838.909180,2642.867676 2838.912354,2639.657227 
	C2838.966064,2584.330566 2839.209473,2529.001953 2838.802734,2473.678223 
	C2838.669922,2455.620117 2834.968750,2437.944824 2827.993164,2421.137207 
	C2815.143555,2390.174316 2792.609375,2369.362793 2760.264893,2361.104004 
	C2719.098389,2350.591553 2680.954102,2357.058594 2648.220947,2386.141113 
	C2646.038574,2388.080078 2643.307129,2389.401123 2638.962402,2392.223633 
	C2638.962402,2385.144531 2639.174561,2380.507324 2638.905273,2375.898438 
	C2638.607910,2370.803955 2640.551270,2365.082764 2634.432617,2360.378906 
	C2608.740234,2360.378906 2582.103271,2360.378906 2551.787109,2361.089355 
M2122.584961,3040.832520 
	C2153.328857,3023.258057 2174.937256,2997.918945 2186.140869,2964.297852 
	C2196.928955,2931.924316 2197.795410,2899.100830 2188.843750,2866.017822 
	C2176.059082,2818.768799 2146.500244,2786.675537 2100.791992,2770.177490 
	C2062.585449,2756.386963 2023.721558,2756.422852 1985.374268,2770.187988 
	C1942.594849,2785.544189 1913.951416,2814.956055 1899.334717,2858.213135 
	C1891.263062,2882.100830 1890.012817,2906.577148 1892.470581,2931.185547 
	C1898.904541,2995.608398 1940.463501,3038.065430 1990.036621,3052.785889 
	C2034.712036,3066.052002 2078.076416,3062.916260 2122.584961,3040.832520 
M1478.844727,1492.651733 
	C1481.411865,1488.766479 1484.305054,1485.056030 1486.496582,1480.969360 
	C1512.734497,1432.041748 1511.770264,1383.765503 1480.367920,1337.746582 
	C1445.863525,1287.181519 1379.337646,1268.483521 1322.533813,1291.796875 
	C1260.786377,1317.139282 1233.932739,1382.514648 1242.842896,1435.653809 
	C1255.174561,1509.197998 1330.464600,1564.355713 1412.459717,1539.633911 
	C1438.635010,1531.741821 1460.142944,1516.462036 1478.844727,1492.651733 
M627.321838,1854.926758 
	C658.052612,1875.224854 691.194214,1883.370239 727.911133,1876.284668 
	C804.118835,1861.578369 851.169556,1784.801025 829.723389,1710.104858 
	C813.758850,1654.500732 759.468933,1614.192505 699.326660,1615.126587 
	C629.519470,1616.210693 555.698669,1681.381104 574.248413,1774.565430 
	C580.752747,1807.239746 598.318054,1833.304443 627.321838,1854.926758 
M1161.439941,2320.012451 
	C1176.247314,2296.873779 1182.427124,2270.039307 1193.318970,2242.848389 
	C1196.182495,2248.842285 1198.348633,2252.706543 1199.927490,2256.797363 
	C1206.638916,2274.188232 1213.493164,2291.533936 1219.713989,2309.102051 
	C1234.598999,2351.137695 1249.154907,2393.289551 1263.846313,2435.393799 
	C1265.818359,2441.045410 1267.315308,2446.927246 1269.890381,2452.290283 
	C1275.084961,2463.108887 1285.900024,2468.273193 1296.105469,2465.487061 
	C1308.473755,2462.111084 1314.706055,2453.154785 1313.229126,2440.011475 
	C1312.715332,2435.439209 1311.208618,2430.931641 1309.781494,2426.515381 
	C1279.670166,2333.336426 1245.344727,2241.720703 1207.548096,2151.397461 
	C1205.751953,2147.105225 1203.955078,2142.751953 1201.571533,2138.779541 
	C1196.343628,2130.066162 1187.718628,2126.496338 1177.662720,2128.371338 
	C1168.118774,2130.150879 1161.239258,2137.219238 1159.781494,2147.270996 
	C1159.018921,2152.531006 1158.850952,2157.879395 1158.456299,2163.190674 
	C1156.176270,2193.878662 1150.555420,2223.893555 1140.184814,2252.923096 
	C1139.149902,2255.819824 1137.215088,2258.395264 1135.012939,2262.350098 
	C1128.897583,2257.386963 1123.771362,2253.297363 1118.720703,2249.116211 
	C1090.363647,2225.640625 1059.612915,2205.885986 1026.455811,2189.908691 
	C1021.693115,2187.613770 1016.763245,2185.161133 1011.644653,2184.204346 
	C996.449829,2181.363525 983.899414,2192.604248 984.398987,2208.095215 
	C984.484009,2210.730957 984.986206,2213.385010 985.573364,2215.967529 
	C1000.487610,2281.561523 1017.792664,2346.498047 1039.193115,2410.302490 
	C1040.248047,2413.447754 1041.180054,2416.702881 1042.743164,2419.596924 
	C1048.610107,2430.460449 1061.032593,2435.057617 1071.625244,2430.530029 
	C1082.570312,2425.851807 1088.195679,2414.621826 1085.281860,2402.750488 
	C1084.173706,2398.236084 1082.395996,2393.890381 1081.095825,2389.417480 
	C1069.022339,2347.880615 1056.942383,2306.345215 1045.039917,2264.759277 
	C1044.267090,2262.059326 1044.939331,2258.945557 1044.939331,2253.755859 
	C1052.443604,2258.525146 1058.131226,2261.805664 1063.463745,2265.587158 
	C1085.256104,2281.041748 1105.297974,2298.513672 1124.046753,2317.573242 
	C1136.570190,2330.304443 1142.425171,2330.665771 1161.439941,2320.012451 
M2861.489014,2938.107910 
	C2862.091553,2926.828125 2862.248535,2915.502930 2863.388916,2904.277832 
	C2865.844727,2880.109619 2879.467773,2862.868164 2906.265137,2859.170898 
	C2917.432617,2857.630127 2928.764648,2857.296143 2940.013428,2856.319580 
	C2943.754150,2855.994873 2947.469238,2855.377441 2950.861816,2854.936768 
	C2953.554199,2828.889648 2952.928223,2776.135010 2949.798096,2761.961914 
	C2930.114014,2761.846680 2911.816895,2767.005859 2895.678467,2778.308838 
	C2887.029785,2784.366455 2879.583984,2792.129883 2871.492188,2799.001709 
	C2869.227539,2800.924805 2866.596436,2802.415527 2862.394287,2805.297119 
	C2861.728027,2790.596680 2861.165283,2778.176025 2860.583740,2765.341309 
	C2856.002197,2764.908691 2852.768799,2764.350342 2849.533447,2764.338867 
	C2827.565430,2764.261475 2805.595947,2764.202393 2783.628906,2764.393555 
	C2779.894287,2764.426025 2776.170166,2765.692139 2771.773438,2766.512939 
	C2771.773438,2861.260742 2771.764893,2955.096191 2771.837158,3048.931885 
	C2771.838623,3050.766602 2772.791260,3052.600830 2773.240967,3054.221436 
	C2793.130859,3057.547119 2846.574707,3057.150879 2861.487061,3053.302979 
	C2861.487061,3016.482178 2861.487061,2979.277832 2861.489014,2938.107910 
M2495.754150,2518.000000 
	C2495.753418,2470.675537 2495.798096,2423.350830 2495.687500,2376.026611 
	C2495.675537,2370.921387 2497.234131,2365.251465 2492.338623,2361.157959 
	C2463.199951,2358.993164 2421.205811,2359.685547 2406.692139,2362.653809 
	C2406.213379,2364.309570 2405.207520,2366.166504 2405.206055,2368.024414 
	C2405.129395,2460.006348 2405.129639,2551.988281 2405.205811,2643.970215 
	C2405.207275,2645.828369 2406.210693,2647.685791 2406.999756,2650.421631 
	C2416.675537,2653.057861 2426.645508,2651.418945 2436.438721,2651.705566 
	C2445.762207,2651.978516 2455.105713,2651.960693 2464.430420,2651.710205 
	C2474.230957,2651.447510 2484.194336,2652.950439 2493.167725,2650.707764 
	C2494.284912,2648.271484 2495.278076,2647.112305 2495.283936,2645.947998 
	C2495.498047,2604.632080 2495.619629,2563.316162 2495.754150,2518.000000 
M1222.125244,2107.716553 
	C1210.990112,2125.546143 1212.343750,2134.937012 1228.387573,2146.565430 
	C1239.704956,2154.768066 1251.419556,2162.421875 1262.935303,2170.352051 
	C1285.904175,2186.169922 1308.858276,2202.009766 1330.408813,2216.868408 
	C1333.756470,2241.842041 1335.960327,2265.058838 1340.127441,2287.917969 
	C1348.085449,2331.572510 1364.284912,2372.258789 1387.692017,2409.979736 
	C1390.798218,2414.985352 1394.488403,2419.998291 1398.990234,2423.687256 
	C1407.227905,2430.437988 1418.813599,2429.718994 1426.604980,2423.092285 
	C1434.834839,2416.092773 1437.601074,2405.699707 1433.171387,2396.212646 
	C1430.648193,2390.808594 1427.309448,2385.778076 1424.242065,2380.636963 
	C1399.258911,2338.764648 1384.932373,2293.287109 1380.378052,2244.976318 
	C1374.839722,2186.227295 1383.294312,2129.479736 1408.056763,2075.497070 
	C1410.223145,2070.774170 1411.884033,2065.430420 1412.143433,2060.292480 
	C1413.007446,2043.168335 1396.760864,2032.331665 1380.743286,2038.633423 
	C1373.198730,2041.601807 1369.671753,2047.663574 1366.521729,2054.450684 
	C1353.884644,2081.679443 1343.370117,2109.669678 1335.793945,2138.738037 
	C1334.180176,2144.929199 1333.006592,2151.297852 1329.520752,2158.458252 
	C1322.638062,2154.175781 1316.990601,2150.935059 1311.628540,2147.276123 
	C1292.930176,2134.516846 1274.240112,2121.741211 1255.729248,2108.712646 
	C1245.676758,2101.637695 1235.573730,2098.604980 1222.125244,2107.716553 
M2456.703613,2330.924072 
	C2462.503174,2329.510498 2468.641357,2328.878662 2474.041260,2326.541260 
	C2492.814941,2318.414551 2503.237549,2304.133057 2503.718994,2283.299072 
	C2504.200684,2262.447998 2494.464844,2247.823486 2476.008789,2238.782471 
	C2460.807617,2231.335693 2445.128418,2231.558594 2429.424316,2236.863770 
	C2409.639893,2243.547119 2397.063232,2261.470215 2397.041260,2282.442627 
	C2397.020264,2302.456543 2408.863037,2320.309326 2428.024658,2326.849121 
	C2436.022461,2329.578613 2444.915283,2329.685791 2456.703613,2330.924072 
z"/>
<path fill="#EE7549" opacity="1.000000" stroke="none" 
	d="
M1107.749023,3136.072754 
	C1084.501709,3101.126953 1074.214844,3063.372803 1073.368286,3023.437500 
	C1072.644653,2989.296875 1079.243164,2955.935791 1090.252441,2923.452881 
	C1105.416260,2878.713135 1129.900513,2839.215820 1157.604370,2801.474121 
	C1193.250366,2752.912598 1234.651123,2709.497803 1279.368164,2669.416748 
	C1331.456543,2622.728271 1384.952148,2577.614014 1437.484009,2531.415039 
	C1492.605347,2482.938232 1544.921021,2431.691162 1589.373291,2372.961182 
	C1623.305176,2328.130859 1652.336914,2280.481689 1672.576416,2227.784180 
	C1693.890259,2172.289062 1704.442261,2114.979492 1699.792236,2055.533691 
	C1694.613403,1989.326538 1673.075806,1929.272583 1628.094971,1879.232178 
	C1590.357910,1837.250000 1543.881958,1809.653198 1487.752075,1801.021484 
	C1451.111572,1795.386963 1414.509399,1798.890869 1379.101685,1810.324829 
	C1279.617554,1842.450439 1205.956665,1904.968628 1159.643433,1998.924561 
	C1147.876587,2022.796021 1137.589966,2047.396606 1126.556519,2071.631836 
	C1126.042480,2072.761230 1124.875488,2073.593262 1123.791504,2074.812500 
	C1121.847168,2074.514404 1119.839844,2074.558594 1118.108521,2073.889160 
	C1090.777832,2063.321045 1063.551147,2052.480469 1036.144775,2042.114014 
	C1025.589722,2038.121460 1014.827698,2034.354492 1003.847351,2031.861450 
	C940.341675,2017.442505 857.759277,2051.022705 819.321045,2116.465332 
	C804.282776,2142.068604 795.219116,2169.593506 791.337708,2199.103027 
	C782.564575,2265.802734 798.662170,2327.327148 829.200073,2385.920898 
	C847.433044,2420.904785 870.273376,2452.921143 893.999390,2484.316406 
	C910.070862,2505.582764 926.681213,2526.455811 942.289062,2548.055176 
	C963.047974,2576.782959 987.818054,2602.001953 1010.905579,2628.699951 
	C1027.029419,2647.344727 1042.279541,2666.742920 1058.268433,2685.507568 
	C1063.887573,2692.102295 1066.348511,2700.561035 1061.314209,2707.301025 
	C1056.533691,2713.701172 1047.852051,2714.528809 1038.008301,2707.872070 
	C1013.176147,2691.080322 988.216553,2674.393799 964.288635,2656.363525 
	C884.258301,2596.059570 810.537781,2528.677734 742.639526,2455.015625 
	C711.006653,2420.697510 680.898438,2385.120117 657.716553,2344.188477 
	C631.667297,2298.193115 615.471863,2249.221924 613.489014,2196.297852 
	C612.333130,2165.446777 618.123596,2135.284668 629.276367,2106.364990 
	C642.887024,2071.071777 663.523254,2040.163574 689.261108,2012.666870 
	C732.487976,1966.485962 784.087280,1933.315918 844.558105,1914.341797 
	C878.659058,1903.641846 913.670349,1900.830322 949.229126,1902.838623 
	C989.431946,1905.109497 1028.265747,1913.812134 1066.211914,1926.941772 
	C1069.988281,1928.248169 1073.806885,1929.450195 1077.657837,1930.512207 
	C1078.870117,1930.846558 1080.252319,1930.564453 1082.408936,1930.564453 
	C1087.908813,1916.018066 1093.312866,1901.052490 1099.198486,1886.278809 
	C1120.560059,1832.657227 1148.832642,1782.992188 1185.952881,1738.700073 
	C1240.980591,1673.041016 1308.554932,1626.402466 1392.683105,1606.261719 
	C1464.709473,1589.018066 1536.584351,1589.433350 1607.640015,1611.835327 
	C1658.703125,1627.933960 1703.277222,1655.074707 1741.882568,1692.200317 
	C1803.190674,1751.158447 1840.657349,1823.782227 1863.793945,1904.564819 
	C1876.895996,1950.311646 1883.187012,1997.236084 1882.742798,2044.691650 
	C1882.279907,2094.125732 1875.159668,2142.856934 1861.419067,2190.540039 
	C1836.316162,2277.653564 1793.510986,2355.254639 1736.173218,2425.106201 
	C1690.772095,2480.416016 1638.945312,2529.289062 1584.209961,2575.104980 
	C1531.065552,2619.589111 1476.818359,2662.765869 1424.059204,2707.695557 
	C1389.596191,2737.044678 1356.280151,2767.830322 1323.715454,2799.281982 
	C1307.029053,2815.397949 1292.223389,2833.708984 1278.164551,2852.239502 
	C1256.945557,2880.208008 1242.887207,2911.483154 1237.774292,2946.765869 
	C1235.503174,2962.438232 1236.571045,2977.727051 1240.457031,2992.330322 
	C1259.887695,3065.349609 1304.490234,3115.605713 1377.814087,3137.461914 
	C1403.181519,3145.023438 1429.111694,3143.252441 1454.269287,3133.449219 
	C1474.859009,3125.425781 1494.093018,3114.885986 1513.194214,3103.970215 
	C1517.039551,3101.772949 1521.038452,3098.059326 1525.860596,3101.947266 
	C1529.253052,3104.682617 1528.762817,3109.839355 1524.011353,3116.291504 
	C1483.320801,3171.545654 1430.416260,3209.095703 1362.795044,3222.980469 
	C1315.207642,3232.751709 1267.457886,3231.400146 1220.552368,3216.689941 
	C1174.590820,3202.276123 1136.548828,3176.912842 1107.749023,3136.072754 
z"/>
<path fill="#475F76" opacity="1.000000" stroke="none" 
	d="
M2346.319824,2285.396484 
	C2349.504395,2287.787354 2351.693848,2289.795166 2352.016602,2292.068115 
	C2352.667480,2296.647705 2352.349854,2301.371582 2352.350098,2306.036133 
	C2352.359375,2414.009766 2352.370605,2521.983398 2352.324707,2629.957031 
	C2352.322021,2636.470703 2351.848145,2642.984375 2351.604980,2649.201416 
	C2336.264648,2652.279785 2290.446777,2652.898193 2265.125732,2650.571777 
	C2260.945801,2645.427979 2262.567871,2639.218750 2262.554199,2633.444824 
	C2262.426758,2579.458496 2262.520752,2525.471436 2262.419678,2471.484619 
	C2262.407959,2465.255371 2263.689697,2458.681641 2259.587158,2450.997070 
	C2252.322998,2458.669189 2251.272461,2467.465332 2248.038086,2475.039551 
	C2244.380859,2483.603516 2241.453857,2492.478271 2238.178711,2501.206299 
	C2235.137939,2509.309326 2232.023682,2517.385010 2229.003418,2525.495361 
	C2225.750000,2534.231689 2222.576904,2542.998047 2219.352783,2551.745361 
	C2216.359131,2559.867188 2213.379883,2567.994629 2210.328857,2576.094971 
	C2207.278320,2584.194336 2204.091553,2592.242920 2201.065186,2600.351318 
	C2197.805420,2609.085205 2194.751709,2617.896484 2191.442871,2626.611328 
	C2188.400879,2634.623535 2185.139404,2642.552490 2181.547119,2651.594238 
	C2157.310547,2651.779785 2133.499512,2651.901611 2109.156738,2651.490479 
	C2102.148926,2633.192139 2095.437500,2615.838623 2088.856689,2598.436035 
	C2082.498535,2581.622070 2076.255127,2564.764404 2069.998047,2547.912354 
	C2063.509277,2530.436279 2057.363037,2512.825928 2050.514160,2495.492676 
	C2044.039917,2479.108398 2038.966797,2462.090820 2029.691650,2446.573486 
	C2027.249268,2480.469482 2027.863647,2514.057129 2027.746460,2547.628174 
	C2027.628174,2581.482178 2027.765015,2615.338135 2027.683838,2648.758789 
	C2011.703979,2652.518311 1957.022705,2652.820801 1938.945068,2649.567383 
	C1938.400757,2647.918213 1937.265381,2646.082275 1937.264038,2644.245117 
	C1937.180298,2525.652588 1937.188477,2407.059814 1937.188477,2287.946777 
	C1940.253052,2286.854492 1942.636108,2285.274414 1945.026001,2285.263916 
	C1976.348022,2285.126221 2007.671143,2285.196533 2038.993774,2285.289551 
	C2040.224243,2285.293213 2041.452515,2286.046631 2044.286621,2286.978271 
	C2061.685303,2326.756348 2077.585938,2368.369141 2094.509521,2409.547363 
	C2111.186523,2450.125732 2127.530762,2490.841064 2144.611328,2532.951416 
	C2151.380615,2526.519775 2152.970703,2519.383301 2155.532715,2513.042236 
	C2174.487793,2466.127686 2193.135742,2419.088867 2211.958740,2372.120850 
	C2223.338623,2343.726074 2234.858398,2315.386963 2246.475342,2286.626709 
	C2263.394775,2283.446533 2280.008057,2285.479980 2296.493408,2285.117676 
	C2312.481201,2284.765869 2328.483887,2285.100342 2346.319824,2285.396484 
z"/>
<path fill="#465E75" opacity="1.000000" stroke="none" 
	d="
M2716.462402,2848.233887 
	C2717.939453,2859.792725 2720.103760,2869.671875 2720.163086,2879.563477 
	C2720.494385,2934.861572 2720.326172,2990.162354 2720.284424,3045.462402 
	C2720.282471,3048.075684 2719.858887,3050.688232 2719.554199,3054.193115 
	C2705.271729,3058.696289 2690.649902,3055.688965 2676.315918,3056.246094 
	C2662.419434,3056.786621 2648.485596,3056.363525 2633.275391,3056.363525 
	C2632.667725,3050.228271 2631.745605,3045.169189 2631.731445,3040.107178 
	C2631.613770,2997.466553 2631.853516,2954.823975 2631.526855,2912.185303 
	C2631.445557,2901.592529 2630.596924,2890.832275 2628.527832,2880.463135 
	C2624.013428,2857.838135 2607.401123,2843.113770 2584.593018,2840.352539 
	C2575.263672,2839.223145 2566.092041,2839.807373 2556.939941,2842.575195 
	C2540.250488,2847.622314 2529.089600,2858.392334 2524.477539,2874.868652 
	C2521.824951,2884.345215 2520.609375,2894.501221 2520.515381,2904.368408 
	C2520.103760,2947.671875 2520.364746,2990.981201 2520.306885,3034.288574 
	C2520.298096,3040.824951 2519.893799,3047.361084 2519.681641,3053.627197 
	C2504.508545,3057.050293 2454.199463,3057.471924 2432.661621,3054.364746 
	C2432.342529,3049.539307 2431.719482,3044.414551 2431.709473,3039.288574 
	C2431.629150,2997.313721 2431.835938,2955.337891 2431.541260,2913.364990 
	C2431.467041,2902.768066 2430.876221,2891.989014 2428.829102,2881.628418 
	C2423.828125,2856.317383 2405.699463,2841.385742 2379.819580,2839.935303 
	C2348.426758,2838.175537 2327.481689,2854.351318 2321.725586,2885.286133 
	C2320.518799,2891.772949 2320.411865,2898.528809 2320.394531,2905.162598 
	C2320.282715,2947.802979 2320.336670,2990.444336 2320.336426,3033.085205 
	C2320.336426,3039.723389 2320.336670,3046.361328 2320.336670,3053.989014 
	C2316.073242,3054.850098 2312.384277,3056.214355 2308.685059,3056.242188 
	C2283.432129,3056.432129 2258.176758,3056.341797 2233.905029,3056.341797 
	C2232.575928,3054.497314 2232.167480,3054.006836 2231.846191,3053.464600 
	C2231.508057,3052.893066 2230.999023,3052.272949 2230.997803,3051.673340 
	C2230.810547,2961.067871 2230.657471,2870.462646 2230.535645,2779.857178 
	C2230.531006,2776.535645 2230.728760,2773.200684 2231.079102,2769.898193 
	C2231.212158,2768.643555 2232.041992,2767.462891 2232.554932,2766.248535 
	C2247.335205,2763.733887 2297.306152,2763.453125 2318.783691,2765.902344 
	C2322.049316,2774.369873 2319.150635,2783.858643 2320.884277,2792.765625 
	C2324.781494,2795.199707 2326.991943,2792.282715 2329.255859,2790.043701 
	C2363.735107,2755.944336 2424.880615,2752.802246 2466.928223,2777.399902 
	C2474.324219,2781.726562 2481.117676,2787.367432 2487.383545,2793.258057 
	C2493.104004,2798.635742 2497.731934,2805.176025 2503.818359,2812.356445 
	C2507.688721,2808.204834 2511.158691,2804.510254 2514.599121,2800.788330 
	C2533.800537,2780.015869 2557.076172,2766.932617 2585.284912,2762.856934 
	C2639.836914,2754.974365 2700.806152,2779.893555 2716.462402,2848.233887 
z"/>
<path fill="#465E76" opacity="1.000000" stroke="none" 
	d="
M3389.576172,3050.905029 
	C3344.607178,3029.935303 3322.370117,2993.526855 3313.051514,2948.281738 
	C3306.794678,2917.903809 3307.945557,2887.250977 3316.589600,2857.353516 
	C3328.280029,2816.921387 3351.524902,2785.600586 3391.539307,2769.443604 
	C3425.352539,2755.790283 3459.271729,2756.696777 3492.031738,2773.294189 
	C3500.212402,2777.438721 3507.327637,2783.735840 3514.773926,2789.257812 
	C3518.287354,2791.863770 3521.425293,2794.976318 3526.195312,2799.133301 
	C3528.358154,2791.421143 3527.485107,2785.572266 3527.625000,2779.871826 
	C3527.772217,2773.882080 3527.657715,2767.886230 3527.657715,2761.893066 
	C3527.657715,2755.899902 3527.657715,2749.906738 3527.657715,2743.913574 
	C3527.657715,2737.920410 3527.657715,2731.927246 3527.657715,2725.934082 
	C3527.657715,2719.940918 3527.657715,2713.947510 3527.657715,2707.954346 
	C3527.657715,2701.961182 3527.657715,2695.968018 3527.657715,2689.974854 
	C3527.657715,2684.031250 3527.657959,2678.087646 3527.657959,2672.059082 
	C3538.079102,2667.017578 3548.147461,2669.573975 3557.852783,2669.142090 
	C3567.157227,2668.727783 3576.499756,2668.854004 3585.815674,2669.107178 
	C3595.635498,2669.373779 3605.595703,2667.841553 3616.040771,2670.492676 
	C3616.560791,2674.131592 3617.316650,2677.318848 3617.430420,2680.528564 
	C3619.222412,2731.088623 3617.987305,3037.199219 3615.992188,3053.838623 
	C3601.957031,3057.162842 3547.300537,3057.429932 3528.439453,3054.067383 
	C3527.984619,3044.031006 3527.516357,3033.702148 3527.067139,3023.789551 
	C3522.871582,3021.823486 3521.487305,3024.769043 3519.864746,3026.544189 
	C3490.256592,3058.943604 3452.916016,3064.865723 3411.974609,3057.818848 
	C3404.833740,3056.589600 3397.989014,3053.640625 3389.576172,3050.905029 
M3445.574707,2978.938965 
	C3452.154053,2979.656006 3458.721191,2980.837402 3465.314697,2981.007812 
	C3490.755859,2981.665527 3508.636475,2968.874268 3519.387207,2947.059814 
	C3531.550293,2922.379395 3530.981689,2896.608154 3518.454590,2872.148193 
	C3508.028564,2851.790283 3490.624268,2840.609619 3467.284668,2839.693115 
	C3443.253418,2838.749756 3425.028076,2848.741455 3412.063232,2868.831299 
	C3405.378662,2879.189941 3402.643066,2890.917969 3401.565186,2902.782227 
	C3399.255127,2928.206299 3408.760254,2964.967285 3445.574707,2978.938965 
z"/>
<path fill="#475F77" opacity="1.000000" stroke="none" 
	d="
M3089.043213,2381.582520 
	C3089.053955,2342.608887 3089.053955,2305.382568 3089.053955,2267.604492 
	C3104.427002,2262.633789 3119.070801,2265.657471 3133.414795,2265.168701 
	C3147.931152,2264.673584 3162.484863,2265.275391 3178.092285,2265.405762 
	C3178.748779,2269.673584 3179.641602,2272.776855 3179.643555,2275.880615 
	C3179.716797,2397.127197 3179.715576,2518.373779 3179.675781,2639.620361 
	C3179.674805,2642.830322 3179.138184,2646.040283 3178.877930,2648.955078 
	C3163.751953,2652.502441 3109.455078,2652.824463 3090.098389,2649.462646 
	C3089.456055,2640.164062 3088.789551,2630.510010 3087.991699,2618.959961 
	C3084.582764,2620.924316 3082.126953,2621.683838 3080.603760,2623.314209 
	C3054.126953,2651.656250 3020.456787,2659.152100 2983.807617,2654.912354 
	C2946.586426,2650.606445 2917.885742,2631.111084 2897.254150,2600.020752 
	C2884.933838,2581.455566 2877.430664,2560.856201 2874.145264,2538.830811 
	C2868.740967,2502.598633 2870.578125,2466.914307 2885.460938,2433.000000 
	C2902.199463,2394.857422 2929.816162,2368.403809 2971.435791,2359.236572 
	C3012.408936,2350.211670 3049.429199,2357.868896 3080.468018,2387.703857 
	C3081.886230,2389.067383 3083.567383,2390.157471 3085.029785,2391.299316 
	C3089.644287,2390.166504 3088.707764,2386.444092 3089.043213,2381.582520 
M3073.432617,2555.037109 
	C3089.416748,2534.638184 3091.547363,2511.188477 3087.192871,2486.914551 
	C3084.179443,2470.114014 3076.011475,2455.671875 3061.552002,2445.663574 
	C3033.168945,2426.017334 2987.831787,2432.072754 2970.685059,2470.579590 
	C2960.428711,2493.612305 2960.500244,2517.168213 2970.565430,2540.154785 
	C2982.550293,2567.525879 3009.899658,2581.343018 3039.155273,2575.772705 
	C3052.026611,2573.322021 3062.539795,2566.682129 3073.432617,2555.037109 
z"/>
<path fill="#475F76" opacity="1.000000" stroke="none" 
	d="
M1839.306885,2814.961426 
	C1814.785645,2814.961182 1792.164551,2814.961182 1769.076050,2814.961182 
	C1766.530762,2811.732422 1763.871338,2808.825195 1761.733887,2805.574707 
	C1743.017944,2777.113525 1715.900146,2765.788818 1682.928467,2768.448730 
	C1649.871460,2771.115479 1625.138184,2787.408936 1611.010498,2817.892090 
	C1606.853027,2826.862549 1603.470337,2836.537842 1601.796387,2846.246094 
	C1597.436523,2871.533203 1598.457275,2896.658936 1607.999512,2920.920166 
	C1630.273804,2977.552002 1688.580322,2985.960205 1726.906738,2969.877197 
	C1738.763184,2964.901855 1748.742798,2957.149170 1756.470947,2946.751465 
	C1760.024292,2941.970703 1763.344971,2937.016602 1766.561035,2932.440186 
	C1781.450317,2929.981445 1841.210938,2929.568359 1863.854370,2931.845215 
	C1863.234619,2936.188232 1863.341919,2940.739258 1861.901367,2944.731445 
	C1843.085693,2996.878174 1808.056274,3032.667236 1754.771484,3049.552734 
	C1710.105103,3063.706787 1665.286133,3063.038574 1621.499268,3046.934814 
	C1569.535645,3027.824463 1534.676025,2990.793213 1517.601685,2938.278076 
	C1502.520996,2891.895020 1502.937866,2844.893311 1520.342651,2799.169678 
	C1544.140381,2736.651611 1590.552490,2700.521240 1655.883301,2688.454346 
	C1691.297363,2681.912842 1726.327148,2684.724121 1760.204224,2696.776123 
	C1812.038330,2715.217285 1845.357178,2752.041992 1863.053345,2803.570068 
	C1864.049805,2806.471436 1863.536987,2809.891357 1863.719604,2812.952637 
	C1855.792725,2816.362549 1848.389038,2814.355469 1839.306885,2814.961426 
z"/>
<path fill="#475F76" opacity="1.000000" stroke="none" 
	d="
M2995.019043,3008.878906 
	C2971.151611,2974.362305 2964.947021,2936.822510 2966.785400,2897.328125 
	C2967.722168,2877.201660 2971.878662,2857.744385 2979.668701,2839.106934 
	C3000.632324,2788.952881 3045.386475,2759.029297 3098.450439,2760.370361 
	C3128.196045,2761.121826 3154.605957,2770.548096 3175.414307,2792.877686 
	C3177.144043,2794.734375 3179.139160,2796.344238 3182.160400,2799.127441 
	C3185.296875,2793.421631 3184.005371,2788.153564 3184.222900,2783.254395 
	C3184.457520,2777.968750 3184.276123,2772.664307 3184.276123,2766.807129 
	C3199.300049,2761.788818 3213.958252,2764.953613 3228.313721,2764.391357 
	C3242.882080,2763.820557 3257.490234,2764.265381 3272.734131,2764.265381 
	C3273.620605,2768.571289 3274.821045,2771.691162 3274.824951,2774.812500 
	C3274.931641,2864.774658 3274.929443,2954.737061 3274.878662,3044.699219 
	C3274.876953,3047.894043 3274.201172,3051.088135 3273.876465,3053.955811 
	C3256.952148,3057.270508 3201.926758,3057.230957 3185.011475,3053.876709 
	C3184.561523,3044.532959 3184.095947,3034.864014 3183.662109,3025.857178 
	C3179.443604,3023.411133 3177.650879,3025.942139 3176.054932,3027.754639 
	C3136.333496,3072.876953 3048.085938,3073.858154 3001.957520,3017.959717 
	C2999.838379,3015.392334 2997.872559,3012.698242 2995.019043,3008.878906 
M3138.398926,2841.672363 
	C3133.814941,2841.022949 3129.250244,2840.139893 3124.644043,2839.762207 
	C3096.916992,2837.488525 3070.276367,2854.598145 3061.955322,2884.536133 
	C3056.703857,2903.430664 3056.876221,2922.698730 3063.966553,2941.276611 
	C3066.295410,2947.378418 3069.769531,2953.258057 3073.708740,2958.495361 
	C3098.548828,2991.520020 3153.928223,2989.068359 3174.299072,2950.453369 
	C3177.967285,2943.500000 3180.887695,2935.824707 3182.435791,2928.136719 
	C3189.399414,2893.553467 3175.904541,2853.796387 3138.398926,2841.672363 
z"/>
<path fill="#475F76" opacity="1.000000" stroke="none" 
	d="
M3796.205078,3060.380371 
	C3774.037598,3060.373291 3754.515137,3056.308594 3736.030273,3048.234375 
	C3693.221191,3029.536377 3667.386230,2996.300537 3657.194092,2951.375977 
	C3650.493164,2921.838623 3650.865967,2891.910400 3659.126709,2862.385010 
	C3673.022217,2812.720459 3704.570557,2780.604004 3754.241943,2766.577148 
	C3785.099121,2757.863281 3816.081543,2757.766602 3846.882080,2766.802246 
	C3902.480957,2783.113281 3933.856934,2821.042480 3943.475586,2877.343994 
	C3946.483398,2894.950195 3947.455078,2912.951904 3942.871582,2932.030273 
	C3920.830322,2932.748047 3898.920410,2932.281982 3877.028320,2932.365479 
	C3855.040527,2932.449707 3833.052246,2932.384033 3811.064209,2932.384033 
	C3789.127441,2932.384033 3767.190674,2932.384033 3745.333008,2932.384033 
	C3744.297607,2956.595215 3756.680908,2975.894287 3777.188232,2983.409180 
	C3802.012207,2992.506348 3823.173096,2985.385742 3843.433105,2961.117432 
	C3862.108154,2958.899170 3921.392822,2959.070557 3937.561523,2961.510498 
	C3936.476807,2965.998291 3935.924316,2970.623535 3934.260254,2974.806885 
	C3917.249512,3017.570557 3885.476562,3043.570557 3841.656738,3055.657715 
	C3827.414551,3059.586182 3812.835693,3060.773926 3796.205078,3060.380371 
M3776.687744,2837.232666 
	C3759.093750,2845.931152 3747.416016,2858.954346 3744.438721,2880.813721 
	C3763.671875,2880.909180 3781.503906,2881.446533 3799.307861,2880.958740 
	C3816.797852,2880.479736 3834.528320,2883.366455 3852.393066,2879.007568 
	C3851.350830,2856.606445 3839.420166,2843.802246 3820.596436,2836.706787 
	C3807.179199,2831.648926 3793.365723,2831.297363 3776.687744,2837.232666 
z"/>
<path fill="#496078" opacity="1.000000" stroke="none" 
	d="
M2553.626709,2360.734131 
	C2582.103271,2360.378906 2608.740234,2360.378906 2634.432617,2360.378906 
	C2640.551270,2365.082764 2638.607910,2370.803955 2638.905273,2375.898438 
	C2639.174561,2380.507324 2638.962402,2385.144531 2638.962402,2392.223633 
	C2643.307129,2389.401123 2646.038574,2388.080078 2648.220947,2386.141113 
	C2680.954102,2357.058594 2719.098389,2350.591553 2760.264893,2361.104004 
	C2792.609375,2369.362793 2815.143555,2390.174316 2827.993164,2421.137207 
	C2834.968750,2437.944824 2838.669922,2455.620117 2838.802734,2473.678223 
	C2839.209473,2529.001953 2838.966064,2584.330566 2838.912354,2639.657227 
	C2838.909180,2642.867676 2838.346191,2646.077637 2838.075195,2648.954102 
	C2823.423096,2652.341797 2777.013428,2653.060547 2750.557373,2650.354248 
	C2750.071045,2645.563721 2749.119385,2640.470459 2749.105469,2635.374512 
	C2748.985596,2591.380371 2749.107178,2547.385010 2748.970459,2503.390869 
	C2748.943604,2494.745361 2748.992432,2485.947998 2747.507568,2477.483887 
	C2739.338867,2430.926025 2691.532227,2423.984619 2664.125244,2440.515381 
	C2650.125732,2448.959717 2642.686768,2462.254395 2640.395752,2478.147705 
	C2639.166260,2486.677979 2639.049316,2495.417236 2639.022705,2504.063965 
	C2638.893311,2546.058350 2639.001709,2588.053467 2638.924805,2630.048340 
	C2638.912842,2636.559326 2638.376953,2643.069336 2638.098877,2649.233398 
	C2622.684814,2652.280518 2578.833252,2652.935059 2551.333252,2650.740479 
	C2546.150635,2645.227295 2548.367188,2638.224609 2548.355957,2631.861572 
	C2548.207275,2547.872070 2548.250000,2463.882080 2548.274658,2379.892334 
	C2548.276123,2375.236328 2548.278076,2370.550049 2548.814453,2365.940186 
	C2549.013428,2364.231201 2550.750977,2362.700928 2553.626709,2360.734131 
z"/>
<path fill="#475E76" opacity="1.000000" stroke="none" 
	d="
M2121.318604,3041.614990 
	C2078.076416,3062.916260 2034.712036,3066.052002 1990.036621,3052.785889 
	C1940.463501,3038.065430 1898.904541,2995.608398 1892.470581,2931.185547 
	C1890.012817,2906.577148 1891.263062,2882.100830 1899.334717,2858.213135 
	C1913.951416,2814.956055 1942.594849,2785.544189 1985.374268,2770.187988 
	C2023.721558,2756.422852 2062.585449,2756.386963 2100.791992,2770.177490 
	C2146.500244,2786.675537 2176.059082,2818.768799 2188.843750,2866.017822 
	C2197.795410,2899.100830 2196.928955,2931.924316 2186.140869,2964.297852 
	C2174.937256,2997.918945 2153.328857,3023.258057 2121.318604,3041.614990 
M2096.121582,2874.916016 
	C2093.510254,2870.305664 2091.375000,2865.336426 2088.211670,2861.142334 
	C2064.552246,2829.772705 2016.135498,2831.971191 1994.551392,2864.808594 
	C1979.552856,2887.626709 1979.570801,2936.548340 1995.783569,2958.160645 
	C1996.580933,2959.223633 1997.262207,2960.381836 1998.122925,2961.388184 
	C2012.714478,2978.450439 2030.827393,2985.660889 2053.182129,2981.095215 
	C2077.989746,2976.028564 2092.646240,2960.145020 2099.386719,2936.628418 
	C2105.023926,2916.961914 2104.369141,2897.216797 2096.121582,2874.916016 
z"/>
<path fill="#EE7549" opacity="1.000000" stroke="none" 
	d="
M1477.982300,1493.797119 
	C1460.142944,1516.462036 1438.635010,1531.741821 1412.459717,1539.633911 
	C1330.464600,1564.355713 1255.174561,1509.197998 1242.842896,1435.653809 
	C1233.932739,1382.514648 1260.786377,1317.139282 1322.533813,1291.796875 
	C1379.337646,1268.483521 1445.863525,1287.181519 1480.367920,1337.746582 
	C1511.770264,1383.765503 1512.734497,1432.041748 1486.496582,1480.969360 
	C1484.305054,1485.056030 1481.411865,1488.766479 1477.982300,1493.797119 
z"/>
<path fill="#EE7549" opacity="1.000000" stroke="none" 
	d="
M626.152832,1854.083496 
	C598.318054,1833.304443 580.752747,1807.239746 574.248413,1774.565430 
	C555.698669,1681.381104 629.519470,1616.210693 699.326660,1615.126587 
	C759.468933,1614.192505 813.758850,1654.500732 829.723389,1710.104858 
	C851.169556,1784.801025 804.118835,1861.578369 727.911133,1876.284668 
	C691.194214,1883.370239 658.052612,1875.224854 626.152832,1854.083496 
z"/>
<path fill="#496078" opacity="1.000000" stroke="none" 
	d="
M1160.388916,2321.100830 
	C1142.425171,2330.665771 1136.570190,2330.304443 1124.046753,2317.573242 
	C1105.297974,2298.513672 1085.256104,2281.041748 1063.463745,2265.587158 
	C1058.131226,2261.805664 1052.443604,2258.525146 1044.939331,2253.755859 
	C1044.939331,2258.945557 1044.267090,2262.059326 1045.039917,2264.759277 
	C1056.942383,2306.345215 1069.022339,2347.880615 1081.095825,2389.417480 
	C1082.395996,2393.890381 1084.173706,2398.236084 1085.281860,2402.750488 
	C1088.195679,2414.621826 1082.570312,2425.851807 1071.625244,2430.530029 
	C1061.032593,2435.057617 1048.610107,2430.460449 1042.743164,2419.596924 
	C1041.180054,2416.702881 1040.248047,2413.447754 1039.193115,2410.302490 
	C1017.792664,2346.498047 1000.487610,2281.561523 985.573364,2215.967529 
	C984.986206,2213.385010 984.484009,2210.730957 984.398987,2208.095215 
	C983.899414,2192.604248 996.449829,2181.363525 1011.644653,2184.204346 
	C1016.763245,2185.161133 1021.693115,2187.613770 1026.455811,2189.908691 
	C1059.612915,2205.885986 1090.363647,2225.640625 1118.720703,2249.116211 
	C1123.771362,2253.297363 1128.897583,2257.386963 1135.012939,2262.350098 
	C1137.215088,2258.395264 1139.149902,2255.819824 1140.184814,2252.923096 
	C1150.555420,2223.893555 1156.176270,2193.878662 1158.456299,2163.190674 
	C1158.850952,2157.879395 1159.018921,2152.531006 1159.781494,2147.270996 
	C1161.239258,2137.219238 1168.118774,2130.150879 1177.662720,2128.371338 
	C1187.718628,2126.496338 1196.343628,2130.066162 1201.571533,2138.779541 
	C1203.955078,2142.751953 1205.751953,2147.105225 1207.548096,2151.397461 
	C1245.344727,2241.720703 1279.670166,2333.336426 1309.781494,2426.515381 
	C1311.208618,2430.931641 1312.715332,2435.439209 1313.229126,2440.011475 
	C1314.706055,2453.154785 1308.473755,2462.111084 1296.105469,2465.487061 
	C1285.900024,2468.273193 1275.084961,2463.108887 1269.890381,2452.290283 
	C1267.315308,2446.927246 1265.818359,2441.045410 1263.846313,2435.393799 
	C1249.154907,2393.289551 1234.598999,2351.137695 1219.713989,2309.102051 
	C1213.493164,2291.533936 1206.638916,2274.188232 1199.927490,2256.797363 
	C1198.348633,2252.706543 1196.182495,2248.842285 1193.318970,2242.848389 
	C1182.427124,2270.039307 1176.247314,2296.873779 1160.388916,2321.100830 
z"/>
<path fill="#465E75" opacity="1.000000" stroke="none" 
	d="
M2861.488037,2940.090576 
	C2861.487061,2979.277832 2861.487061,3016.482178 2861.487061,3053.302979 
	C2846.574707,3057.150879 2793.130859,3057.547119 2773.240967,3054.221436 
	C2772.791260,3052.600830 2771.838623,3050.766602 2771.837158,3048.931885 
	C2771.764893,2955.096191 2771.773438,2861.260742 2771.773438,2766.512939 
	C2776.170166,2765.692139 2779.894287,2764.426025 2783.628906,2764.393555 
	C2805.595947,2764.202393 2827.565430,2764.261475 2849.533447,2764.338867 
	C2852.768799,2764.350342 2856.002197,2764.908691 2860.583740,2765.341309 
	C2861.165283,2778.176025 2861.728027,2790.596680 2862.394287,2805.297119 
	C2866.596436,2802.415527 2869.227539,2800.924805 2871.492188,2799.001709 
	C2879.583984,2792.129883 2887.029785,2784.366455 2895.678467,2778.308838 
	C2911.816895,2767.005859 2930.114014,2761.846680 2949.798096,2761.961914 
	C2952.928223,2776.135010 2953.554199,2828.889648 2950.861816,2854.936768 
	C2947.469238,2855.377441 2943.754150,2855.994873 2940.013428,2856.319580 
	C2928.764648,2857.296143 2917.432617,2857.630127 2906.265137,2859.170898 
	C2879.467773,2862.868164 2865.844727,2880.109619 2863.388916,2904.277832 
	C2862.248535,2915.502930 2862.091553,2926.828125 2861.488037,2940.090576 
z"/>
<path fill="#4A6178" opacity="1.000000" stroke="none" 
	d="
M2495.754150,2520.000000 
	C2495.619629,2563.316162 2495.498047,2604.632080 2495.283936,2645.947998 
	C2495.278076,2647.112305 2494.284912,2648.271484 2493.167725,2650.707764 
	C2484.194336,2652.950439 2474.230957,2651.447510 2464.430420,2651.710205 
	C2455.105713,2651.960693 2445.762207,2651.978516 2436.438721,2651.705566 
	C2426.645508,2651.418945 2416.675537,2653.057861 2406.999756,2650.421631 
	C2406.210693,2647.685791 2405.207275,2645.828369 2405.205811,2643.970215 
	C2405.129639,2551.988281 2405.129395,2460.006348 2405.206055,2368.024414 
	C2405.207520,2366.166504 2406.213379,2364.309570 2406.692139,2362.653809 
	C2421.205811,2359.685547 2463.199951,2358.993164 2492.343750,2361.156738 
	C2497.234131,2365.251465 2495.675537,2370.921387 2495.687500,2376.026611 
	C2495.798096,2423.350830 2495.753418,2470.675537 2495.754150,2520.000000 
z"/>
<path fill="#496078" opacity="1.000000" stroke="none" 
	d="
M1223.251953,2106.802734 
	C1235.573730,2098.604980 1245.676758,2101.637695 1255.729248,2108.712646 
	C1274.240112,2121.741211 1292.930176,2134.516846 1311.628540,2147.276123 
	C1316.990601,2150.935059 1322.638062,2154.175781 1329.520752,2158.458252 
	C1333.006592,2151.297852 1334.180176,2144.929199 1335.793945,2138.738037 
	C1343.370117,2109.669678 1353.884644,2081.679443 1366.521729,2054.450684 
	C1369.671753,2047.663574 1373.198730,2041.601807 1380.743286,2038.633423 
	C1396.760864,2032.331665 1413.007446,2043.168335 1412.143433,2060.292480 
	C1411.884033,2065.430420 1410.223145,2070.774170 1408.056763,2075.497070 
	C1383.294312,2129.479736 1374.839722,2186.227295 1380.378052,2244.976318 
	C1384.932373,2293.287109 1399.258911,2338.764648 1424.242065,2380.636963 
	C1427.309448,2385.778076 1430.648193,2390.808594 1433.171387,2396.212646 
	C1437.601074,2405.699707 1434.834839,2416.092773 1426.604980,2423.092285 
	C1418.813599,2429.718994 1407.227905,2430.437988 1398.990234,2423.687256 
	C1394.488403,2419.998291 1390.798218,2414.985352 1387.692017,2409.979736 
	C1364.284912,2372.258789 1348.085449,2331.572510 1340.127441,2287.917969 
	C1335.960327,2265.058838 1333.756470,2241.842041 1330.408813,2216.868408 
	C1308.858276,2202.009766 1285.904175,2186.169922 1262.935303,2170.352051 
	C1251.419556,2162.421875 1239.704956,2154.768066 1228.387573,2146.565430 
	C1212.343750,2134.937012 1210.990112,2125.546143 1223.251953,2106.802734 
z"/>
<path fill="#4A6178" opacity="1.000000" stroke="none" 
	d="
M2455.052246,2330.954834 
	C2444.915283,2329.685791 2436.022461,2329.578613 2428.024658,2326.849121 
	C2408.863037,2320.309326 2397.020264,2302.456543 2397.041260,2282.442627 
	C2397.063232,2261.470215 2409.639893,2243.547119 2429.424316,2236.863770 
	C2445.128418,2231.558594 2460.807617,2231.335693 2476.008789,2238.782471 
	C2494.464844,2247.823486 2504.200684,2262.447998 2503.718994,2283.299072 
	C2503.237549,2304.133057 2492.814941,2318.414551 2474.041260,2326.541260 
	C2468.641357,2328.878662 2462.503174,2329.510498 2455.052246,2330.954834 
z"/>
<path fill="#FCFCFC" opacity="1.000000" stroke="none" 
	d="
M3444.081787,2978.249512 
	C3408.760254,2964.967285 3399.255127,2928.206299 3401.565186,2902.782227 
	C3402.643066,2890.917969 3405.378662,2879.189941 3412.063232,2868.831299 
	C3425.028076,2848.741455 3443.253418,2838.749756 3467.284668,2839.693115 
	C3490.624268,2840.609619 3508.028564,2851.790283 3518.454590,2872.148193 
	C3530.981689,2896.608154 3531.550293,2922.379395 3519.387207,2947.059814 
	C3508.636475,2968.874268 3490.755859,2981.665527 3465.314697,2981.007812 
	C3458.721191,2980.837402 3452.154053,2979.656006 3444.081787,2978.249512 
z"/>
<path fill="#FCFCFC" opacity="1.000000" stroke="none" 
	d="
M3072.401611,2556.107910 
	C3062.539795,2566.682129 3052.026611,2573.322021 3039.155273,2575.772705 
	C3009.899658,2581.343018 2982.550293,2567.525879 2970.565430,2540.154785 
	C2960.500244,2517.168213 2960.428711,2493.612305 2970.685059,2470.579590 
	C2987.831787,2432.072754 3033.168945,2426.017334 3061.552002,2445.663574 
	C3076.011475,2455.671875 3084.179443,2470.114014 3087.192871,2486.914551 
	C3091.547363,2511.188477 3089.416748,2534.638184 3072.401611,2556.107910 
z"/>
<path fill="#FCFCFC" opacity="1.000000" stroke="none" 
	d="
M3139.909912,2842.257812 
	C3175.904541,2853.796387 3189.399414,2893.553467 3182.435791,2928.136719 
	C3180.887695,2935.824707 3177.967285,2943.500000 3174.299072,2950.453369 
	C3153.928223,2989.068359 3098.548828,2991.520020 3073.708740,2958.495361 
	C3069.769531,2953.258057 3066.295410,2947.378418 3063.966553,2941.276611 
	C3056.876221,2922.698730 3056.703857,2903.430664 3061.955322,2884.536133 
	C3070.276367,2854.598145 3096.916992,2837.488525 3124.644043,2839.762207 
	C3129.250244,2840.139893 3133.814941,2841.022949 3139.909912,2842.257812 
z"/>
<path fill="#FBFCFC" opacity="1.000000" stroke="none" 
	d="
M3778.178223,2836.750488 
	C3793.365723,2831.297363 3807.179199,2831.648926 3820.596436,2836.706787 
	C3839.420166,2843.802246 3851.350830,2856.606445 3852.393066,2879.007568 
	C3834.528320,2883.366455 3816.797852,2880.479736 3799.307861,2880.958740 
	C3781.503906,2881.446533 3763.671875,2880.909180 3744.438721,2880.813721 
	C3747.416016,2858.954346 3759.093750,2845.931152 3778.178223,2836.750488 
z"/>
<path fill="#FBFCFC" opacity="1.000000" stroke="none" 
	d="
M2096.674805,2876.390381 
	C2104.369141,2897.216797 2105.023926,2916.961914 2099.386719,2936.628418 
	C2092.646240,2960.145020 2077.989746,2976.028564 2053.182129,2981.095215 
	C2030.827393,2985.660889 2012.714478,2978.450439 1998.122925,2961.388184 
	C1997.262207,2960.381836 1996.580933,2959.223633 1995.783569,2958.160645 
	C1979.570801,2936.548340 1979.552856,2887.626709 1994.551392,2864.808594 
	C2016.135498,2831.971191 2064.552246,2829.772705 2088.211670,2861.142334 
	C2091.375000,2865.336426 2093.510254,2870.305664 2096.674805,2876.390381 
z"/>
</svg>